<svg width="50" height="51" viewBox="0 0 50 51" fill="none" xmlns="http://www.w3.org/2000/svg">
<path fill-rule="evenodd" clip-rule="evenodd" d="M45.3906 14.7949L43.7566 16.4289C40.2162 13.343 35.6766 11.617 30.9566 11.617C27.7787 11.617 24.6026 12.434 21.8792 13.8859L28.7779 6.98722C29.3226 7.34977 29.9575 7.5319 30.5941 7.5319C31.5013 7.5319 32.4102 7.16935 33.1353 6.44254C34.5872 4.99063 34.5872 2.71999 33.1353 1.26807C32.4085 0.541264 31.5013 0.178711 30.5941 0.178711C29.6868 0.178711 28.7779 0.541264 28.0528 1.26807C26.8732 2.53956 26.6911 4.35403 27.5081 5.71573L18.7932 14.4306L17.1592 12.7966L12.7115 17.2442L14.3455 18.8783L5.44852 27.7753C4.90384 27.4128 4.26894 27.2306 3.63235 27.2306C2.72512 27.2306 1.81618 27.5932 1.09107 28.32C-0.360842 29.7719 -0.360842 32.0425 1.09107 33.4945C1.81788 34.1294 2.72512 34.4936 3.63235 34.4936C4.53958 34.4936 5.44852 34.1311 6.17363 33.4042C7.3532 32.2247 7.53533 30.4085 6.71831 28.9566L13.617 22.0579C9.98639 29.0485 10.8034 37.7634 16.1583 43.9353L14.5243 45.6596L19.0638 50.1072L23.5115 45.6596L19.0638 41.2119L17.52 42.7557C12.2553 36.5821 11.983 27.6868 16.4306 21.1506L17.1575 21.8774L21.697 17.4298L20.88 16.703C23.7855 14.6145 27.326 13.5251 30.9566 13.5251C35.2238 13.5251 39.217 15.0689 42.4851 17.7923L40.8511 19.3362L45.3906 23.7838L49.8383 19.3362L45.3906 14.7966V14.7949ZM20.9702 45.6596L19.0638 47.5659L17.1575 45.6596L19.0638 43.7532L20.9702 45.6596ZM29.3226 2.62977C29.6851 2.26722 30.1396 2.08509 30.5941 2.08509C31.0485 2.08509 31.5013 2.26722 31.8655 2.62977C32.5924 3.35658 32.5924 4.44595 31.8655 5.17105C31.503 5.5336 31.0485 5.71573 30.5941 5.71573C30.1396 5.71573 29.6868 5.5336 29.3226 5.17105C28.5958 4.53616 28.5958 3.35488 29.3226 2.62977ZM4.90214 32.1328C4.53958 32.4953 4.08511 32.6774 3.63065 32.6774C3.17618 32.6774 2.72341 32.4953 2.35916 32.1328C1.9966 31.8604 1.81448 31.4059 1.81448 30.8613C1.81448 30.4068 1.9966 29.954 2.35916 29.5898C2.72171 29.2255 3.17618 29.0451 3.63065 29.0451C4.08511 29.0451 4.53788 29.2272 4.90214 29.5898C5.62894 30.3166 5.62894 31.4962 4.90214 32.1311V32.1328ZM17.0672 19.3328L15.1609 17.4264L17.0672 15.52L18.9736 17.4264L17.0672 19.3328ZM45.3906 21.2391L43.4843 19.3328L45.3906 17.4264L47.297 19.3328L45.3906 21.2391Z" fill="#00B2A0"/>
</svg>
